<?xml version="1.0" encoding="UTF-8" standalone="no"?>
<!DOCTYPE svg PUBLIC "-//W3C//DTD SVG 1.1//EN"
 "http://www.w3.org/Graphics/SVG/1.1/DTD/svg11.dtd">
<!-- Generated by graphviz version 2.43.0 (0)
 -->
<!-- Title: G Pages: 1 -->
<svg width="918pt" height="402pt"
 viewBox="0.00 0.00 918.20 402.29" xmlns="http://www.w3.org/2000/svg" xmlns:xlink="http://www.w3.org/1999/xlink">
<g id="graph0" class="graph" transform="scale(1 1) rotate(0) translate(21.6 380.69)">
<title>G</title>
<polygon fill="#111111" stroke="transparent" points="-21.6,21.6 -21.6,-380.69 896.6,-380.69 896.6,21.6 -21.6,21.6"/>
<!-- App.js -->
<g id="node1" class="node">
<title>App.js</title>
<path fill="none" stroke="#c6c5fe" d="M180.33,-178.99C180.33,-178.99 141.67,-178.99 141.67,-178.99 137.83,-178.99 134,-175.16 134,-171.33 134,-171.33 134,-163.66 134,-163.66 134,-159.83 137.83,-155.99 141.67,-155.99 141.67,-155.99 180.33,-155.99 180.33,-155.99 184.17,-155.99 188,-159.83 188,-163.66 188,-163.66 188,-171.33 188,-171.33 188,-175.16 184.17,-178.99 180.33,-178.99"/>
<text text-anchor="middle" x="161" y="-163.79" font-family="Arial" font-size="14.00" fill="#c6c5fe">App.js</text>
</g>
<!-- components/Gl.js -->
<g id="node2" class="node">
<title>components/Gl.js</title>
<path fill="none" stroke="#c6c5fe" d="M390.33,-217.99C390.33,-217.99 283.67,-217.99 283.67,-217.99 279.83,-217.99 276,-214.16 276,-210.33 276,-210.33 276,-202.66 276,-202.66 276,-198.83 279.83,-194.99 283.67,-194.99 283.67,-194.99 390.33,-194.99 390.33,-194.99 394.17,-194.99 398,-198.83 398,-202.66 398,-202.66 398,-210.33 398,-210.33 398,-214.16 394.17,-217.99 390.33,-217.99"/>
<text text-anchor="middle" x="337" y="-202.79" font-family="Arial" font-size="14.00" fill="#c6c5fe">components/Gl.js</text>
</g>
<!-- App.js&#45;&gt;components/Gl.js -->
<g id="edge1" class="edge">
<title>App.js&#45;&gt;components/Gl.js</title>
<path fill="none" stroke="#757575" d="M188.05,-173.33C210.88,-178.45 244.95,-186.09 274.65,-192.74"/>
<polygon fill="#757575" stroke="#757575" points="274.01,-196.19 284.53,-194.96 275.54,-189.36 274.01,-196.19"/>
</g>
<!-- components/Sidebar.js -->
<g id="node3" class="node">
<title>components/Sidebar.js</title>
<path fill="none" stroke="#c6c5fe" d="M406.33,-98.99C406.33,-98.99 267.67,-98.99 267.67,-98.99 263.83,-98.99 260,-95.16 260,-91.33 260,-91.33 260,-83.66 260,-83.66 260,-79.83 263.83,-75.99 267.67,-75.99 267.67,-75.99 406.33,-75.99 406.33,-75.99 410.17,-75.99 414,-79.83 414,-83.66 414,-83.66 414,-91.33 414,-91.33 414,-95.16 410.17,-98.99 406.33,-98.99"/>
<text text-anchor="middle" x="337" y="-83.79" font-family="Arial" font-size="14.00" fill="#c6c5fe">components/Sidebar.js</text>
</g>
<!-- App.js&#45;&gt;components/Sidebar.js -->
<g id="edge2" class="edge">
<title>App.js&#45;&gt;components/Sidebar.js</title>
<path fill="none" stroke="#757575" d="M188.04,-161.79C199.65,-158.49 213.13,-153.55 224,-146.49 243.78,-133.65 239.78,-119.65 260,-107.49 262.66,-105.89 265.45,-104.42 268.32,-103.06"/>
<polygon fill="#757575" stroke="#757575" points="269.87,-106.21 277.73,-99.11 267.16,-99.76 269.87,-106.21"/>
</g>
<!-- handlers/Keyboard.js -->
<g id="node4" class="node">
<title>handlers/Keyboard.js</title>
<path fill="none" stroke="#c6c5fe" d="M400.83,-139.99C400.83,-139.99 273.17,-139.99 273.17,-139.99 269.33,-139.99 265.5,-136.16 265.5,-132.33 265.5,-132.33 265.5,-124.66 265.5,-124.66 265.5,-120.83 269.33,-116.99 273.17,-116.99 273.17,-116.99 400.83,-116.99 400.83,-116.99 404.67,-116.99 408.5,-120.83 408.5,-124.66 408.5,-124.66 408.5,-132.33 408.5,-132.33 408.5,-136.16 404.67,-139.99 400.83,-139.99"/>
<text text-anchor="middle" x="337" y="-124.79" font-family="Arial" font-size="14.00" fill="#c6c5fe">handlers/Keyboard.js</text>
</g>
<!-- App.js&#45;&gt;handlers/Keyboard.js -->
<g id="edge3" class="edge">
<title>App.js&#45;&gt;handlers/Keyboard.js</title>
<path fill="none" stroke="#757575" d="M188.05,-161.66C210.88,-156.54 244.95,-148.9 274.65,-142.24"/>
<polygon fill="#757575" stroke="#757575" points="275.54,-145.63 284.53,-140.03 274.01,-138.8 275.54,-145.63"/>
</g>
<!-- u/Constants.js -->
<g id="node5" class="node">
<title>u/Constants.js</title>
<path fill="none" stroke="#cfffac" d="M867.33,-339.99C867.33,-339.99 780.67,-339.99 780.67,-339.99 776.83,-339.99 773,-336.16 773,-332.33 773,-332.33 773,-324.66 773,-324.66 773,-320.83 776.83,-316.99 780.67,-316.99 780.67,-316.99 867.33,-316.99 867.33,-316.99 871.17,-316.99 875,-320.83 875,-324.66 875,-324.66 875,-332.33 875,-332.33 875,-336.16 871.17,-339.99 867.33,-339.99"/>
<text text-anchor="middle" x="824" y="-324.79" font-family="Arial" font-size="14.00" fill="#cfffac">u/Constants.js</text>
</g>
<!-- App.js&#45;&gt;u/Constants.js -->
<g id="edge4" class="edge">
<title>App.js&#45;&gt;u/Constants.js</title>
<path fill="none" stroke="#757575" d="M168.73,-179.11C182.68,-202.13 217.08,-253.63 260,-280.49 408.87,-373.69 472.68,-344.91 648,-355.49 687.48,-357.88 697.9,-361.49 737,-355.49 752.84,-353.07 769.76,-348.26 784.37,-343.37"/>
<polygon fill="#757575" stroke="#757575" points="785.77,-346.59 794.07,-340 783.48,-339.98 785.77,-346.59"/>
</g>
<!-- u/gl_utils.js -->
<g id="node6" class="node">
<title>u/gl_utils.js</title>
<path fill="none" stroke="#c6c5fe" d="M726.33,-237.99C726.33,-237.99 658.67,-237.99 658.67,-237.99 654.83,-237.99 651,-234.16 651,-230.33 651,-230.33 651,-222.66 651,-222.66 651,-218.83 654.83,-214.99 658.67,-214.99 658.67,-214.99 726.33,-214.99 726.33,-214.99 730.17,-214.99 734,-218.83 734,-222.66 734,-222.66 734,-230.33 734,-230.33 734,-234.16 730.17,-237.99 726.33,-237.99"/>
<text text-anchor="middle" x="692.5" y="-222.79" font-family="Arial" font-size="14.00" fill="#c6c5fe">u/gl_utils.js</text>
</g>
<!-- App.js&#45;&gt;u/gl_utils.js -->
<g id="edge5" class="edge">
<title>App.js&#45;&gt;u/gl_utils.js</title>
<path fill="none" stroke="#757575" d="M178.11,-179.16C220.18,-208.75 337.86,-286.07 450,-309.49 520.48,-324.22 545.78,-337.76 612,-309.49 641.76,-296.79 665.72,-266.88 679.28,-246.65"/>
<polygon fill="#757575" stroke="#757575" points="682.29,-248.44 684.77,-238.14 676.41,-244.65 682.29,-248.44"/>
</g>
<!-- u/useWindowSize.js -->
<g id="node7" class="node">
<title>u/useWindowSize.js</title>
<path fill="none" stroke="#cfffac" d="M398.33,-57.99C398.33,-57.99 275.67,-57.99 275.67,-57.99 271.83,-57.99 268,-54.16 268,-50.33 268,-50.33 268,-42.66 268,-42.66 268,-38.83 271.83,-34.99 275.67,-34.99 275.67,-34.99 398.33,-34.99 398.33,-34.99 402.17,-34.99 406,-38.83 406,-42.66 406,-42.66 406,-50.33 406,-50.33 406,-54.16 402.17,-57.99 398.33,-57.99"/>
<text text-anchor="middle" x="337" y="-42.79" font-family="Arial" font-size="14.00" fill="#cfffac">u/useWindowSize.js</text>
</g>
<!-- App.js&#45;&gt;u/useWindowSize.js -->
<g id="edge6" class="edge">
<title>App.js&#45;&gt;u/useWindowSize.js</title>
<path fill="none" stroke="#757575" d="M188.28,-163.55C200.36,-160.59 214.16,-155.43 224,-146.49 252.86,-120.28 230.25,-91.69 260,-66.49 261.36,-65.34 262.78,-64.26 264.25,-63.23"/>
<polygon fill="#757575" stroke="#757575" points="266.28,-66.1 273.13,-58.01 262.74,-60.06 266.28,-66.1"/>
</g>
<!-- components/Gl.js&#45;&gt;u/Constants.js -->
<g id="edge10" class="edge">
<title>components/Gl.js&#45;&gt;u/Constants.js</title>
<path fill="none" stroke="#757575" d="M346.21,-218.2C362.79,-240.74 402.74,-289.67 450,-309.49 553.08,-352.74 686.47,-346.36 762.61,-337.58"/>
<polygon fill="#757575" stroke="#757575" points="763.46,-341 772.97,-336.33 762.62,-334.05 763.46,-341"/>
</g>
<!-- components/Gl.js&#45;&gt;u/gl_utils.js -->
<g id="edge12" class="edge">
<title>components/Gl.js&#45;&gt;u/gl_utils.js</title>
<path fill="none" stroke="#757575" d="M381.38,-194.94C435.98,-182.27 532.26,-166.14 612,-185.49 631.25,-190.16 651.05,-200.36 666.07,-209.41"/>
<polygon fill="#757575" stroke="#757575" points="664.43,-212.51 674.76,-214.84 668.14,-206.57 664.43,-212.51"/>
</g>
<!-- components/Active.js -->
<g id="node8" class="node">
<title>components/Active.js</title>
<path fill="none" stroke="#cfffac" d="M595.83,-258.99C595.83,-258.99 466.17,-258.99 466.17,-258.99 462.33,-258.99 458.5,-255.16 458.5,-251.33 458.5,-251.33 458.5,-243.66 458.5,-243.66 458.5,-239.83 462.33,-235.99 466.17,-235.99 466.17,-235.99 595.83,-235.99 595.83,-235.99 599.67,-235.99 603.5,-239.83 603.5,-243.66 603.5,-243.66 603.5,-251.33 603.5,-251.33 603.5,-255.16 599.67,-258.99 595.83,-258.99"/>
<text text-anchor="middle" x="531" y="-243.79" font-family="Arial" font-size="14.00" fill="#cfffac">components/Active.js</text>
</g>
<!-- components/Gl.js&#45;&gt;components/Active.js -->
<g id="edge7" class="edge">
<title>components/Gl.js&#45;&gt;components/Active.js</title>
<path fill="none" stroke="#757575" d="M391.99,-218.02C414.99,-222.94 442,-228.7 466,-233.83"/>
<polygon fill="#757575" stroke="#757575" points="465.57,-237.31 476.08,-235.98 467.03,-230.47 465.57,-237.31"/>
</g>
<!-- components/Gridlines.js -->
<g id="node9" class="node">
<title>components/Gridlines.js</title>
<path fill="none" stroke="#cfffac" d="M604.33,-217.99C604.33,-217.99 457.67,-217.99 457.67,-217.99 453.83,-217.99 450,-214.16 450,-210.33 450,-210.33 450,-202.66 450,-202.66 450,-198.83 453.83,-194.99 457.67,-194.99 457.67,-194.99 604.33,-194.99 604.33,-194.99 608.17,-194.99 612,-198.83 612,-202.66 612,-202.66 612,-210.33 612,-210.33 612,-214.16 608.17,-217.99 604.33,-217.99"/>
<text text-anchor="middle" x="531" y="-202.79" font-family="Arial" font-size="14.00" fill="#cfffac">components/Gridlines.js</text>
</g>
<!-- components/Gl.js&#45;&gt;components/Gridlines.js -->
<g id="edge8" class="edge">
<title>components/Gl.js&#45;&gt;components/Gridlines.js</title>
<path fill="none" stroke="#757575" d="M398.22,-206.49C411.41,-206.49 425.65,-206.49 439.72,-206.49"/>
<polygon fill="#757575" stroke="#757575" points="439.92,-209.99 449.92,-206.49 439.92,-202.99 439.92,-209.99"/>
</g>
<!-- handlers/Mouse.js -->
<g id="node10" class="node">
<title>handlers/Mouse.js</title>
<path fill="none" stroke="#c6c5fe" d="M586.83,-299.99C586.83,-299.99 475.17,-299.99 475.17,-299.99 471.33,-299.99 467.5,-296.16 467.5,-292.33 467.5,-292.33 467.5,-284.66 467.5,-284.66 467.5,-280.83 471.33,-276.99 475.17,-276.99 475.17,-276.99 586.83,-276.99 586.83,-276.99 590.67,-276.99 594.5,-280.83 594.5,-284.66 594.5,-284.66 594.5,-292.33 594.5,-292.33 594.5,-296.16 590.67,-299.99 586.83,-299.99"/>
<text text-anchor="middle" x="531" y="-284.79" font-family="Arial" font-size="14.00" fill="#c6c5fe">handlers/Mouse.js</text>
</g>
<!-- components/Gl.js&#45;&gt;handlers/Mouse.js -->
<g id="edge9" class="edge">
<title>components/Gl.js&#45;&gt;handlers/Mouse.js</title>
<path fill="none" stroke="#757575" d="M355.53,-218.09C376.99,-231.85 414.85,-254.65 450,-268.49 455.08,-270.49 460.42,-272.34 465.83,-274.04"/>
<polygon fill="#757575" stroke="#757575" points="465.02,-277.45 475.61,-276.93 467.01,-270.74 465.02,-277.45"/>
</g>
<!-- u/gl_actions.js -->
<g id="node11" class="node">
<title>u/gl_actions.js</title>
<path fill="none" stroke="#c6c5fe" d="M574.33,-99.99C574.33,-99.99 487.67,-99.99 487.67,-99.99 483.83,-99.99 480,-96.16 480,-92.33 480,-92.33 480,-84.66 480,-84.66 480,-80.83 483.83,-76.99 487.67,-76.99 487.67,-76.99 574.33,-76.99 574.33,-76.99 578.17,-76.99 582,-80.83 582,-84.66 582,-84.66 582,-92.33 582,-92.33 582,-96.16 578.17,-99.99 574.33,-99.99"/>
<text text-anchor="middle" x="531" y="-84.79" font-family="Arial" font-size="14.00" fill="#c6c5fe">u/gl_actions.js</text>
</g>
<!-- components/Gl.js&#45;&gt;u/gl_actions.js -->
<g id="edge11" class="edge">
<title>components/Gl.js&#45;&gt;u/gl_actions.js</title>
<path fill="none" stroke="#757575" d="M356.76,-194.96C390.81,-174.04 462.93,-129.71 502.53,-105.37"/>
<polygon fill="#757575" stroke="#757575" points="504.48,-108.29 511.16,-100.07 500.81,-102.32 504.48,-108.29"/>
</g>
<!-- components/Sidebar.js&#45;&gt;u/gl_utils.js -->
<g id="edge15" class="edge">
<title>components/Sidebar.js&#45;&gt;u/gl_utils.js</title>
<path fill="none" stroke="#757575" d="M394.33,-75.87C401.22,-73.33 407.95,-70.24 414,-66.49 434.34,-53.92 428.15,-36.22 450,-26.49 515.77,2.8 552.42,13.94 612,-26.49 619.87,-31.83 665.47,-155.09 683.84,-205.4"/>
<polygon fill="#757575" stroke="#757575" points="680.61,-206.76 687.32,-214.96 687.19,-204.37 680.61,-206.76"/>
</g>
<!-- components/Sidebar.js&#45;&gt;u/gl_actions.js -->
<g id="edge14" class="edge">
<title>components/Sidebar.js&#45;&gt;u/gl_actions.js</title>
<path fill="none" stroke="#757575" d="M414.16,-87.89C432.63,-87.99 452.12,-88.09 469.74,-88.18"/>
<polygon fill="#757575" stroke="#757575" points="469.85,-91.68 479.87,-88.23 469.89,-84.68 469.85,-91.68"/>
</g>
<!-- items/Buttons.js -->
<g id="node12" class="node">
<title>items/Buttons.js</title>
<path fill="none" stroke="#cfffac" d="M579.83,-58.99C579.83,-58.99 482.17,-58.99 482.17,-58.99 478.33,-58.99 474.5,-55.16 474.5,-51.33 474.5,-51.33 474.5,-43.66 474.5,-43.66 474.5,-39.83 478.33,-35.99 482.17,-35.99 482.17,-35.99 579.83,-35.99 579.83,-35.99 583.67,-35.99 587.5,-39.83 587.5,-43.66 587.5,-43.66 587.5,-51.33 587.5,-51.33 587.5,-55.16 583.67,-58.99 579.83,-58.99"/>
<text text-anchor="middle" x="531" y="-43.79" font-family="Arial" font-size="14.00" fill="#cfffac">items/Buttons.js</text>
</g>
<!-- components/Sidebar.js&#45;&gt;items/Buttons.js -->
<g id="edge13" class="edge">
<title>components/Sidebar.js&#45;&gt;items/Buttons.js</title>
<path fill="none" stroke="#757575" d="M393.28,-75.98C415.67,-71.31 441.69,-65.89 464.98,-61.04"/>
<polygon fill="#757575" stroke="#757575" points="465.71,-64.46 474.78,-59 464.28,-57.61 465.71,-64.46"/>
</g>
<!-- handlers/Keyboard.js&#45;&gt;u/gl_utils.js -->
<g id="edge17" class="edge">
<title>handlers/Keyboard.js&#45;&gt;u/gl_utils.js</title>
<path fill="none" stroke="#757575" d="M408.57,-131.87C465.24,-136.49 545.96,-147.47 612,-173.49 633.29,-181.88 654.71,-196.62 669.95,-208.42"/>
<polygon fill="#757575" stroke="#757575" points="668.16,-211.47 678.16,-214.97 672.52,-206 668.16,-211.47"/>
</g>
<!-- handlers/Keyboard.js&#45;&gt;u/gl_actions.js -->
<g id="edge16" class="edge">
<title>handlers/Keyboard.js&#45;&gt;u/gl_actions.js</title>
<path fill="none" stroke="#757575" d="M393.28,-116.98C417.23,-111.99 445.33,-106.13 469.81,-101.03"/>
<polygon fill="#757575" stroke="#757575" points="470.63,-104.44 479.7,-98.97 469.2,-97.59 470.63,-104.44"/>
</g>
<!-- u/gl_utils.js&#45;&gt;u/Constants.js -->
<g id="edge24" class="edge">
<title>u/gl_utils.js&#45;&gt;u/Constants.js</title>
<path fill="none" stroke="#757575" d="M708.1,-238C730.55,-255.67 773.7,-289.66 800.26,-310.58"/>
<polygon fill="#757575" stroke="#757575" points="798.23,-313.44 808.25,-316.88 802.56,-307.94 798.23,-313.44"/>
</g>
<!-- u/mat4.js -->
<g id="node19" class="node">
<title>u/mat4.js</title>
<path fill="none" stroke="#cfffac" d="M852.33,-237.99C852.33,-237.99 795.67,-237.99 795.67,-237.99 791.83,-237.99 788,-234.16 788,-230.33 788,-230.33 788,-222.66 788,-222.66 788,-218.83 791.83,-214.99 795.67,-214.99 795.67,-214.99 852.33,-214.99 852.33,-214.99 856.17,-214.99 860,-218.83 860,-222.66 860,-222.66 860,-230.33 860,-230.33 860,-234.16 856.17,-237.99 852.33,-237.99"/>
<text text-anchor="middle" x="824" y="-222.79" font-family="Arial" font-size="14.00" fill="#cfffac">u/mat4.js</text>
</g>
<!-- u/gl_utils.js&#45;&gt;u/mat4.js -->
<g id="edge25" class="edge">
<title>u/gl_utils.js&#45;&gt;u/mat4.js</title>
<path fill="none" stroke="#757575" d="M734.12,-226.49C747.97,-226.49 763.53,-226.49 777.72,-226.49"/>
<polygon fill="#757575" stroke="#757575" points="777.77,-229.99 787.77,-226.49 777.77,-222.99 777.77,-229.99"/>
</g>
<!-- handlers/Mouse.js&#45;&gt;u/gl_utils.js -->
<g id="edge18" class="edge">
<title>handlers/Mouse.js&#45;&gt;u/gl_utils.js</title>
<path fill="none" stroke="#757575" d="M585.91,-276.91C594.74,-274.48 603.71,-271.67 612,-268.49 629.99,-261.61 649.11,-251.6 664.08,-243.09"/>
<polygon fill="#757575" stroke="#757575" points="665.93,-246.06 672.83,-238.02 662.42,-240 665.93,-246.06"/>
</g>
<!-- u/shaders.js -->
<g id="node18" class="node">
<title>u/shaders.js</title>
<path fill="none" stroke="#cfffac" d="M729.33,-99.99C729.33,-99.99 655.67,-99.99 655.67,-99.99 651.83,-99.99 648,-96.16 648,-92.33 648,-92.33 648,-84.66 648,-84.66 648,-80.83 651.83,-76.99 655.67,-76.99 655.67,-76.99 729.33,-76.99 729.33,-76.99 733.17,-76.99 737,-80.83 737,-84.66 737,-84.66 737,-92.33 737,-92.33 737,-96.16 733.17,-99.99 729.33,-99.99"/>
<text text-anchor="middle" x="692.5" y="-84.79" font-family="Arial" font-size="14.00" fill="#cfffac">u/shaders.js</text>
</g>
<!-- u/gl_actions.js&#45;&gt;u/shaders.js -->
<g id="edge23" class="edge">
<title>u/gl_actions.js&#45;&gt;u/shaders.js</title>
<path fill="none" stroke="#757575" d="M582.03,-88.49C599.75,-88.49 619.76,-88.49 637.78,-88.49"/>
<polygon fill="#757575" stroke="#757575" points="637.84,-91.99 647.84,-88.49 637.84,-84.99 637.84,-91.99"/>
</g>
<!-- font.css -->
<g id="node13" class="node">
<title>font.css</title>
<path fill="none" stroke="#cfffac" d="M184.83,-137.99C184.83,-137.99 137.17,-137.99 137.17,-137.99 133.33,-137.99 129.5,-134.16 129.5,-130.33 129.5,-130.33 129.5,-122.66 129.5,-122.66 129.5,-118.83 133.33,-114.99 137.17,-114.99 137.17,-114.99 184.83,-114.99 184.83,-114.99 188.67,-114.99 192.5,-118.83 192.5,-122.66 192.5,-122.66 192.5,-130.33 192.5,-130.33 192.5,-134.16 188.67,-137.99 184.83,-137.99"/>
<text text-anchor="middle" x="161" y="-122.79" font-family="Arial" font-size="14.00" fill="#cfffac">font.css</text>
</g>
<!-- index.js -->
<g id="node14" class="node">
<title>index.js</title>
<path fill="none" stroke="#c6c5fe" d="M54.33,-116.99C54.33,-116.99 7.67,-116.99 7.67,-116.99 3.83,-116.99 0,-113.16 0,-109.33 0,-109.33 0,-101.66 0,-101.66 0,-97.83 3.83,-93.99 7.67,-93.99 7.67,-93.99 54.33,-93.99 54.33,-93.99 58.17,-93.99 62,-97.83 62,-101.66 62,-101.66 62,-109.33 62,-109.33 62,-113.16 58.17,-116.99 54.33,-116.99"/>
<text text-anchor="middle" x="31" y="-101.79" font-family="Arial" font-size="14.00" fill="#c6c5fe">index.js</text>
</g>
<!-- index.js&#45;&gt;App.js -->
<g id="edge19" class="edge">
<title>index.js&#45;&gt;App.js</title>
<path fill="none" stroke="#757575" d="M49.68,-117.12C65.77,-127.58 88.43,-141.97 98,-146.49 106.29,-150.41 115.51,-153.94 124.25,-156.94"/>
<polygon fill="#757575" stroke="#757575" points="123.25,-160.3 133.84,-160.1 125.43,-153.65 123.25,-160.3"/>
</g>
<!-- index.js&#45;&gt;font.css -->
<g id="edge20" class="edge">
<title>index.js&#45;&gt;font.css</title>
<path fill="none" stroke="#757575" d="M62.01,-110.42C79.09,-113.22 100.73,-116.77 119.32,-119.82"/>
<polygon fill="#757575" stroke="#757575" points="118.85,-123.29 129.29,-121.46 119.99,-116.38 118.85,-123.29"/>
</g>
<!-- reportWebVitals.js -->
<g id="node15" class="node">
<title>reportWebVitals.js</title>
<path fill="none" stroke="#cfffac" d="M216.33,-96.99C216.33,-96.99 105.67,-96.99 105.67,-96.99 101.83,-96.99 98,-93.16 98,-89.33 98,-89.33 98,-81.66 98,-81.66 98,-77.83 101.83,-73.99 105.67,-73.99 105.67,-73.99 216.33,-73.99 216.33,-73.99 220.17,-73.99 224,-77.83 224,-81.66 224,-81.66 224,-89.33 224,-89.33 224,-93.16 220.17,-96.99 216.33,-96.99"/>
<text text-anchor="middle" x="161" y="-81.79" font-family="Arial" font-size="14.00" fill="#cfffac">reportWebVitals.js</text>
</g>
<!-- index.js&#45;&gt;reportWebVitals.js -->
<g id="edge21" class="edge">
<title>index.js&#45;&gt;reportWebVitals.js</title>
<path fill="none" stroke="#757575" d="M62.01,-100.8C69.93,-99.57 78.83,-98.18 87.96,-96.75"/>
<polygon fill="#757575" stroke="#757575" points="88.57,-100.2 97.91,-95.2 87.49,-93.28 88.57,-100.2"/>
</g>
<!-- style.css -->
<g id="node16" class="node">
<title>style.css</title>
<path fill="none" stroke="#cfffac" d="M187.33,-55.99C187.33,-55.99 134.67,-55.99 134.67,-55.99 130.83,-55.99 127,-52.16 127,-48.33 127,-48.33 127,-40.66 127,-40.66 127,-36.83 130.83,-32.99 134.67,-32.99 134.67,-32.99 187.33,-32.99 187.33,-32.99 191.17,-32.99 195,-36.83 195,-40.66 195,-40.66 195,-48.33 195,-48.33 195,-52.16 191.17,-55.99 187.33,-55.99"/>
<text text-anchor="middle" x="161" y="-40.79" font-family="Arial" font-size="14.00" fill="#cfffac">style.css</text>
</g>
<!-- index.js&#45;&gt;style.css -->
<g id="edge22" class="edge">
<title>index.js&#45;&gt;style.css</title>
<path fill="none" stroke="#757575" d="M48.19,-93.88C61.18,-84.95 80.13,-72.77 98,-64.49 104.14,-61.65 110.79,-59.04 117.38,-56.72"/>
<polygon fill="#757575" stroke="#757575" points="118.56,-60.02 126.93,-53.52 116.34,-53.38 118.56,-60.02"/>
</g>
<!-- u/act.js -->
<g id="node17" class="node">
<title>u/act.js</title>
<path fill="none" stroke="#cfffac" d="M52.83,-157.99C52.83,-157.99 9.17,-157.99 9.17,-157.99 5.33,-157.99 1.5,-154.16 1.5,-150.33 1.5,-150.33 1.5,-142.66 1.5,-142.66 1.5,-138.83 5.33,-134.99 9.17,-134.99 9.17,-134.99 52.83,-134.99 52.83,-134.99 56.67,-134.99 60.5,-138.83 60.5,-142.66 60.5,-142.66 60.5,-150.33 60.5,-150.33 60.5,-154.16 56.67,-157.99 52.83,-157.99"/>
<text text-anchor="middle" x="31" y="-142.79" font-family="Arial" font-size="14.00" fill="#cfffac">u/act.js</text>
</g>
</g>
</svg>
